<?xml version="1.0" encoding="utf-8"?>
<!-- Generator: Adobe Illustrator 26.0.3, SVG Export Plug-In . SVG Version: 6.00 Build 0)  -->
<svg version="1.1" id="Layer_1" xmlns="http://www.w3.org/2000/svg" xmlns:xlink="http://www.w3.org/1999/xlink" x="0px" y="0px"
	 viewBox="0 0 316.7 316.7" style="enable-background:new 0 0 316.7 316.7;" xml:space="preserve">
<style type="text/css">
	.st0{fill:none;stroke:#F2F1F1;stroke-width:3;stroke-miterlimit:10;}
	.st1{fill:#F2F1F1;}
	.st2{font-family:'ProximaNova-Regular';}
	.st3{font-size:39.61px;}
	.st4{font-family:'ProximaNova-Semibold';}
	.st5{font-size:52.29px;}
	.st6{font-family:'ProximaNova-Light';}
	.st7{letter-spacing:-1.1;}
</style>
<g id="Layer_2_00000057832195642301650760000016959180887655517346_">
	<g id="IG_-_TILE">
		<rect x="1.5" y="1.5" class="st0" width="313.7" height="313.7"/>
		<text transform="matrix(1 0 0 1 29.21 100.35)" class="st1 st2 st3">th</text>
		<text transform="matrix(1 0 0 1 60.82 100.35)" class="st1 st2 st3">e</text>
		<text transform="matrix(1 0 0 1 29.21 144.71)" class="st1 st4 st5">HUMA</text>
		<text transform="matrix(1 0 0 1 187.74 144.71)" class="st1 st4 st5">N</text>
		<text transform="matrix(1 0 0 1 29.21 189.07)" class="st1 st4 st5">FREEDOM</text>
		<text transform="matrix(1 0 0 1 29.21 233.44)" class="st1 st4 st5">IN</text>
		<text transform="matrix(1 0 0 1 82.02 233.44)" class="st1 st4 st5">D</text>
		<text transform="matrix(1 0 0 1 119.25 233.44)" class="st1 st4 st5">E</text>
		<text transform="matrix(1 0 0 1 149.1 233.44)" class="st1 st4 st5">X</text>
		<text transform="matrix(0.8817 0 0 1 184.6504 233.4404)" class="st1 st6 st5">20</text>
		<text transform="matrix(0.8817 0 0 1 236.4629 233.4404)" class="st1 st6 st5 st7">21</text>
	</g>
</g>
</svg>
